<mxfile host="app.diagrams.net" modified="2022-07-12T12:45:57.002Z" agent="5.0 (Windows)" etag="U1NryAr0SJOrrnoVDOMa" version="20.0.4" type="github" pages="4">
  <diagram id="CSa5qXbMmdBcm2d1L7wk" name="Ruderzimmer">
    <mxGraphModel dx="1422" dy="762" grid="1" gridSize="10" guides="1" tooltips="1" connect="1" arrows="1" fold="1" page="1" pageScale="1" pageWidth="827" pageHeight="1169" math="0" shadow="0">
      <root>
        <mxCell id="0" />
        <mxCell id="1" parent="0" />
        <mxCell id="sQzfj27IZOgIWoUDwKMh-1" value="265" style="shape=dimension;whiteSpace=wrap;html=1;align=center;points=[];verticalAlign=bottom;spacingBottom=-5;labelBackgroundColor=#ffffff;fontSize=10;" vertex="1" parent="1">
          <mxGeometry x="600" y="500" width="60" height="40" as="geometry" />
        </mxCell>
        <mxCell id="sQzfj27IZOgIWoUDwKMh-2" value="0%" style="rounded=0;whiteSpace=wrap;html=1;fillColor=#f8cecc;strokeColor=#b85450;fontSize=10;" vertex="1" parent="1">
          <mxGeometry x="160" y="160" width="80" height="320" as="geometry" />
        </mxCell>
        <mxCell id="sQzfj27IZOgIWoUDwKMh-3" value="3987" style="shape=dimension;direction=south;whiteSpace=wrap;html=1;align=left;points=[];verticalAlign=middle;labelBackgroundColor=#ffffff;fontSize=10;" vertex="1" parent="1">
          <mxGeometry x="100" y="160" width="40" height="320" as="geometry" />
        </mxCell>
        <mxCell id="sQzfj27IZOgIWoUDwKMh-4" value="265 x 2527 = 669655 (mm&lt;sup&gt;2&lt;/sup&gt;)" style="rounded=0;whiteSpace=wrap;html=1;fillColor=#d5e8d4;strokeColor=#82b366;fontSize=10;" vertex="1" parent="1">
          <mxGeometry x="600" y="240" width="60" height="160" as="geometry" />
        </mxCell>
        <mxCell id="sQzfj27IZOgIWoUDwKMh-8" value="2527" style="shape=dimension;direction=north;whiteSpace=wrap;html=1;align=right;points=[];verticalAlign=middle;labelBackgroundColor=#ffffff;fontSize=10;" vertex="1" parent="1">
          <mxGeometry x="700" y="240" width="40" height="160" as="geometry" />
        </mxCell>
        <mxCell id="sQzfj27IZOgIWoUDwKMh-14" value="1734 X 3987 = 6913458 (mm&lt;sup&gt;2&lt;/sup&gt;) &lt;br&gt;&lt;br&gt;&lt;div&gt;davon 50% ergibt&lt;/div&gt;&lt;div&gt;&lt;br&gt;&lt;/div&gt;&lt;div&gt;3456729 (mm&lt;sup&gt;2&lt;/sup&gt;)&lt;/div&gt;" style="rounded=0;whiteSpace=wrap;html=1;fillColor=#ffe6cc;strokeColor=#d79b00;fontSize=10;" vertex="1" parent="1">
          <mxGeometry x="240" y="160" width="160" height="320" as="geometry" />
        </mxCell>
        <mxCell id="sQzfj27IZOgIWoUDwKMh-15" value="2807 x 3987 = 11191509 (mm&lt;sup&gt;2&lt;/sup&gt;)" style="rounded=0;whiteSpace=wrap;html=1;fillColor=#d5e8d4;strokeColor=#82b366;fontSize=10;" vertex="1" parent="1">
          <mxGeometry x="400" y="160" width="200" height="320" as="geometry" />
        </mxCell>
        <mxCell id="sQzfj27IZOgIWoUDwKMh-16" value="656" style="shape=dimension;direction=north;whiteSpace=wrap;html=1;align=right;points=[];verticalAlign=middle;labelBackgroundColor=#ffffff;fontSize=10;" vertex="1" parent="1">
          <mxGeometry x="700" y="160" width="40" height="80" as="geometry" />
        </mxCell>
        <mxCell id="sQzfj27IZOgIWoUDwKMh-17" value="797" style="shape=dimension;direction=north;whiteSpace=wrap;html=1;align=right;points=[];verticalAlign=middle;labelBackgroundColor=#ffffff;fontSize=10;" vertex="1" parent="1">
          <mxGeometry x="700" y="400" width="40" height="80" as="geometry" />
        </mxCell>
        <mxCell id="sQzfj27IZOgIWoUDwKMh-18" value="2807" style="shape=dimension;whiteSpace=wrap;html=1;align=center;points=[];verticalAlign=bottom;spacingBottom=-5;labelBackgroundColor=#ffffff;fontSize=10;" vertex="1" parent="1">
          <mxGeometry x="400" y="500" width="200" height="40" as="geometry" />
        </mxCell>
        <mxCell id="sQzfj27IZOgIWoUDwKMh-19" value="4541" style="shape=dimension;whiteSpace=wrap;html=1;align=center;points=[];verticalAlign=bottom;spacingBottom=-5;labelBackgroundColor=#ffffff;fontSize=10;" vertex="1" parent="1">
          <mxGeometry x="240" y="560" width="360" height="40" as="geometry" />
        </mxCell>
        <mxCell id="sQzfj27IZOgIWoUDwKMh-20" value="1734" style="shape=dimension;whiteSpace=wrap;html=1;align=center;points=[];verticalAlign=bottom;spacingBottom=-5;labelBackgroundColor=#ffffff;fontSize=10;" vertex="1" parent="1">
          <mxGeometry x="240" y="500" width="160" height="40" as="geometry" />
        </mxCell>
        <mxCell id="sQzfj27IZOgIWoUDwKMh-21" value="3456729&lt;br&gt;&lt;div&gt;+ 11191509&lt;br&gt;+ 669655&lt;br&gt;=&amp;nbsp; 15317893 (mm&lt;sup&gt;2&lt;/sup&gt;)&lt;br&gt;&lt;/div&gt;&lt;br&gt;&lt;br&gt;= 15,317893 (m&lt;sup&gt;2&lt;/sup&gt;)" style="text;html=1;strokeColor=none;fillColor=none;align=right;verticalAlign=middle;whiteSpace=wrap;rounded=0;fontSize=10;fontColor=none;" vertex="1" parent="1">
          <mxGeometry x="640" y="590" width="100" height="40" as="geometry" />
        </mxCell>
        <mxCell id="sQzfj27IZOgIWoUDwKMh-24" value="Ruderzimmer" style="text;html=1;strokeColor=none;fillColor=none;align=left;verticalAlign=middle;whiteSpace=wrap;rounded=0;fontStyle=1;fontSize=16;" vertex="1" parent="1">
          <mxGeometry x="120" y="80" width="160" height="30" as="geometry" />
        </mxCell>
      </root>
    </mxGraphModel>
  </diagram>
  <diagram id="X6rc-tUkhDs7_zAdfxBk" name="Flur">
    <mxGraphModel dx="1422" dy="762" grid="1" gridSize="10" guides="1" tooltips="1" connect="1" arrows="1" fold="1" page="1" pageScale="1" pageWidth="827" pageHeight="1169" math="0" shadow="0">
      <root>
        <mxCell id="0" />
        <mxCell id="1" parent="0" />
        <mxCell id="pvsXfnrJaJvz6GsHt6UB-3" value="1725" style="shape=dimension;direction=south;whiteSpace=wrap;html=1;align=left;points=[];verticalAlign=middle;labelBackgroundColor=#ffffff;fontSize=10;" vertex="1" parent="1">
          <mxGeometry x="180" y="120" width="40" height="240" as="geometry" />
        </mxCell>
        <mxCell id="pvsXfnrJaJvz6GsHt6UB-7" value="1725 x 1080&lt;br&gt;= 1863000 (mm&lt;sup&gt;2&lt;/sup&gt;)" style="rounded=0;whiteSpace=wrap;html=1;fillColor=#d5e8d4;strokeColor=#82b366;fontSize=10;" vertex="1" parent="1">
          <mxGeometry x="240" y="120" width="120" height="240" as="geometry" />
        </mxCell>
        <mxCell id="pvsXfnrJaJvz6GsHt6UB-12" value="1080" style="shape=dimension;whiteSpace=wrap;html=1;align=center;points=[];verticalAlign=bottom;spacingBottom=-5;labelBackgroundColor=#ffffff;fontSize=10;" vertex="1" parent="1">
          <mxGeometry x="240" y="380" width="120" height="40" as="geometry" />
        </mxCell>
        <mxCell id="pvsXfnrJaJvz6GsHt6UB-13" value="&lt;br&gt;&lt;div&gt;1863000 (mm&lt;sup&gt;2&lt;/sup&gt;)&lt;br&gt;&lt;/div&gt;&lt;br&gt;= 1,863000 (m&lt;sup&gt;2&lt;/sup&gt;)" style="text;html=1;strokeColor=none;fillColor=none;align=right;verticalAlign=middle;whiteSpace=wrap;rounded=0;fontSize=10;fontColor=none;" vertex="1" parent="1">
          <mxGeometry x="414" y="220" width="100" height="40" as="geometry" />
        </mxCell>
        <mxCell id="pvsXfnrJaJvz6GsHt6UB-14" value="Flur" style="text;html=1;strokeColor=none;fillColor=none;align=left;verticalAlign=middle;whiteSpace=wrap;rounded=0;fontStyle=1;fontSize=16;" vertex="1" parent="1">
          <mxGeometry x="120" y="80" width="160" height="30" as="geometry" />
        </mxCell>
      </root>
    </mxGraphModel>
  </diagram>
  <diagram id="yc9DwopKEaXccD5_II3W" name="Bad (oben)">
    <mxGraphModel dx="1422" dy="762" grid="1" gridSize="10" guides="1" tooltips="1" connect="1" arrows="1" fold="1" page="1" pageScale="1" pageWidth="827" pageHeight="1169" math="0" shadow="0">
      <root>
        <mxCell id="0" />
        <mxCell id="1" parent="0" />
        <mxCell id="mtiANbGwsNEHT-Cs2vWS-1" value="1361" style="shape=dimension;whiteSpace=wrap;html=1;align=center;points=[];verticalAlign=bottom;spacingBottom=-5;labelBackgroundColor=#ffffff;fontSize=10;" vertex="1" parent="1">
          <mxGeometry x="200" y="470" width="280" height="40" as="geometry" />
        </mxCell>
        <mxCell id="mtiANbGwsNEHT-Cs2vWS-2" value="1361 x 1017 = 1384137  (mm&lt;sup&gt;2&lt;/sup&gt;)" style="rounded=0;whiteSpace=wrap;html=1;fillColor=#d5e8d4;strokeColor=#82b366;fontSize=10;" vertex="1" parent="1">
          <mxGeometry x="200" y="270" width="280" height="160" as="geometry" />
        </mxCell>
        <mxCell id="mtiANbGwsNEHT-Cs2vWS-3" value="1184" style="shape=dimension;direction=south;whiteSpace=wrap;html=1;align=left;points=[];verticalAlign=middle;labelBackgroundColor=#ffffff;fontSize=10;" vertex="1" parent="1">
          <mxGeometry x="120" y="230" width="40" height="200" as="geometry" />
        </mxCell>
        <mxCell id="mtiANbGwsNEHT-Cs2vWS-4" value="1183 x 171 = 202293 (mm&lt;sup&gt;2&lt;/sup&gt;)" style="rounded=0;whiteSpace=wrap;html=1;fillColor=#d5e8d4;strokeColor=#82b366;fontSize=10;" vertex="1" parent="1">
          <mxGeometry x="200" y="230" width="240" height="40" as="geometry" />
        </mxCell>
        <mxCell id="mtiANbGwsNEHT-Cs2vWS-5" value="" style="rounded=0;whiteSpace=wrap;html=1;fillColor=#ffe6cc;strokeColor=#d79b00;fontSize=10;" vertex="1" parent="1">
          <mxGeometry x="480" y="310" width="40" height="120" as="geometry" />
        </mxCell>
        <mxCell id="mtiANbGwsNEHT-Cs2vWS-6" value="171" style="shape=dimension;direction=north;whiteSpace=wrap;html=1;align=right;points=[];verticalAlign=middle;labelBackgroundColor=#ffffff;fontSize=10;" vertex="1" parent="1">
          <mxGeometry x="560" y="230" width="40" height="40" as="geometry" />
        </mxCell>
        <mxCell id="mtiANbGwsNEHT-Cs2vWS-7" value="256" style="shape=dimension;direction=north;whiteSpace=wrap;html=1;align=right;points=[];verticalAlign=middle;labelBackgroundColor=#ffffff;fontSize=10;" vertex="1" parent="1">
          <mxGeometry x="560" y="270" width="40" height="40" as="geometry" />
        </mxCell>
        <mxCell id="mtiANbGwsNEHT-Cs2vWS-8" value="760" style="shape=dimension;direction=north;whiteSpace=wrap;html=1;align=right;points=[];verticalAlign=middle;labelBackgroundColor=#ffffff;fontSize=10;" vertex="1" parent="1">
          <mxGeometry x="560" y="310" width="40" height="120" as="geometry" />
        </mxCell>
        <mxCell id="mtiANbGwsNEHT-Cs2vWS-9" value="1183" style="shape=dimension;direction=west;whiteSpace=wrap;html=1;align=center;points=[];verticalAlign=top;spacingTop=-8;labelBackgroundColor=#ffffff;fontSize=10;" vertex="1" parent="1">
          <mxGeometry x="200" y="150" width="240" height="40" as="geometry" />
        </mxCell>
        <mxCell id="mtiANbGwsNEHT-Cs2vWS-10" value="177" style="shape=dimension;direction=west;whiteSpace=wrap;html=1;align=center;points=[];verticalAlign=top;spacingTop=-8;labelBackgroundColor=#ffffff;fontSize=10;" vertex="1" parent="1">
          <mxGeometry x="440" y="150" width="40" height="40" as="geometry" />
        </mxCell>
        <mxCell id="mtiANbGwsNEHT-Cs2vWS-11" value="265" style="shape=dimension;direction=west;whiteSpace=wrap;html=1;align=center;points=[];verticalAlign=top;spacingTop=-8;labelBackgroundColor=#ffffff;fontSize=10;" vertex="1" parent="1">
          <mxGeometry x="480" y="150" width="40" height="40" as="geometry" />
        </mxCell>
        <mxCell id="mtiANbGwsNEHT-Cs2vWS-12" value="1017" style="shape=dimension;direction=north;whiteSpace=wrap;html=1;align=right;points=[];verticalAlign=middle;labelBackgroundColor=#ffffff;fontSize=10;" vertex="1" parent="1">
          <mxGeometry x="640" y="270" width="40" height="160" as="geometry" />
        </mxCell>
        <mxCell id="mtiANbGwsNEHT-Cs2vWS-13" value="202293&lt;br&gt;&lt;div&gt;+ 1384137&lt;br&gt;= 1586430 &lt;br&gt;&lt;/div&gt;&lt;br&gt;&lt;br&gt;= 1,58 (m&lt;sup&gt;2&lt;/sup&gt;)" style="text;html=1;strokeColor=none;fillColor=none;align=right;verticalAlign=middle;whiteSpace=wrap;rounded=0;fontSize=10;fontColor=none;" vertex="1" parent="1">
          <mxGeometry x="610" y="480" width="100" height="40" as="geometry" />
        </mxCell>
        <mxCell id="1YfKz_EJvu64baT023gT-1" value="Bad (oben)" style="text;html=1;strokeColor=none;fillColor=none;align=left;verticalAlign=middle;whiteSpace=wrap;rounded=0;fontStyle=1;fontSize=16;" vertex="1" parent="1">
          <mxGeometry x="120" y="80" width="160" height="30" as="geometry" />
        </mxCell>
      </root>
    </mxGraphModel>
  </diagram>
  <diagram id="GN6P7tGJ_L0M5nmcAcI-" name="Erdgeschoss">
    <mxGraphModel dx="1185" dy="635" grid="1" gridSize="10" guides="1" tooltips="1" connect="1" arrows="1" fold="1" page="1" pageScale="1" pageWidth="827" pageHeight="1169" math="0" shadow="0">
      <root>
        <mxCell id="0" />
        <mxCell id="1" parent="0" />
        <mxCell id="nakAse_tgmJTzeun_6DE-1" value="985" style="shape=dimension;whiteSpace=wrap;html=1;align=center;points=[];verticalAlign=bottom;spacingBottom=-5;labelBackgroundColor=#ffffff;fontSize=10;" vertex="1" parent="1">
          <mxGeometry x="160" y="600" width="100" height="30" as="geometry" />
        </mxCell>
        <mxCell id="nakAse_tgmJTzeun_6DE-2" value="3140 x 32251017&lt;br&gt;= 10126500  (mm&lt;sup&gt;2&lt;/sup&gt;)" style="rounded=0;whiteSpace=wrap;html=1;fillColor=#d5e8d4;strokeColor=#82b366;fontSize=10;" vertex="1" parent="1">
          <mxGeometry x="480" y="280" width="240" height="160" as="geometry" />
        </mxCell>
        <mxCell id="nakAse_tgmJTzeun_6DE-3" value="3593" style="shape=dimension;direction=south;whiteSpace=wrap;html=1;align=left;points=[];verticalAlign=middle;labelBackgroundColor=#ffffff;fontSize=10;" vertex="1" parent="1">
          <mxGeometry x="90" y="280" width="30" height="180" as="geometry" />
        </mxCell>
        <mxCell id="nakAse_tgmJTzeun_6DE-4" value="2080 x 1614&lt;br&gt;=&lt;br&gt;2257120 (mm&lt;sup&gt;2&lt;/sup&gt;)" style="rounded=0;whiteSpace=wrap;html=1;fillColor=#d5e8d4;strokeColor=#82b366;fontSize=10;" vertex="1" parent="1">
          <mxGeometry x="520" y="670" width="140" height="120" as="geometry" />
        </mxCell>
        <mxCell id="nakAse_tgmJTzeun_6DE-6" value="257" style="shape=dimension;direction=north;whiteSpace=wrap;html=1;align=right;points=[];verticalAlign=middle;labelBackgroundColor=#ffffff;fontSize=10;" vertex="1" parent="1">
          <mxGeometry x="640" y="240" width="30" height="40" as="geometry" />
        </mxCell>
        <mxCell id="nakAse_tgmJTzeun_6DE-9" value="2535" style="shape=dimension;direction=west;whiteSpace=wrap;html=1;align=center;points=[];verticalAlign=top;spacingTop=-8;labelBackgroundColor=#ffffff;fontSize=10;" vertex="1" parent="1">
          <mxGeometry x="480" y="210" width="160" height="30" as="geometry" />
        </mxCell>
        <mxCell id="nakAse_tgmJTzeun_6DE-12" value="3225" style="shape=dimension;direction=north;whiteSpace=wrap;html=1;align=right;points=[];verticalAlign=middle;labelBackgroundColor=#ffffff;fontSize=10;" vertex="1" parent="1">
          <mxGeometry x="720" y="280" width="30" height="160" as="geometry" />
        </mxCell>
        <mxCell id="nakAse_tgmJTzeun_6DE-13" value="Bad:&lt;br&gt;&lt;br&gt;2257120&lt;br&gt;&lt;div&gt;+ 1419172&lt;br&gt;= 3676292&lt;br&gt;&lt;/div&gt;&lt;br&gt;&lt;br&gt;= 3,67 (m&lt;sup&gt;2&lt;/sup&gt;)" style="text;html=1;strokeColor=none;fillColor=none;align=right;verticalAlign=middle;whiteSpace=wrap;rounded=0;fontSize=10;fontColor=none;" vertex="1" parent="1">
          <mxGeometry x="600" y="870" width="100" height="120" as="geometry" />
        </mxCell>
        <mxCell id="nakAse_tgmJTzeun_6DE-14" value="Erdgeschoss" style="text;html=1;strokeColor=none;fillColor=none;align=left;verticalAlign=middle;whiteSpace=wrap;rounded=0;fontStyle=1;fontSize=16;" vertex="1" parent="1">
          <mxGeometry x="120" y="80" width="160" height="30" as="geometry" />
        </mxCell>
        <mxCell id="nakAse_tgmJTzeun_6DE-15" value="2535 x 256&lt;br&gt;= 646400 (mm&lt;sup&gt;2&lt;/sup&gt;)" style="rounded=0;whiteSpace=wrap;html=1;fillColor=#d5e8d4;strokeColor=#82b366;fontSize=10;" vertex="1" parent="1">
          <mxGeometry x="480" y="240" width="160" height="40" as="geometry" />
        </mxCell>
        <mxCell id="nakAse_tgmJTzeun_6DE-16" value="4726 x 4960&lt;br&gt;= 23440960  (mm&lt;sup&gt;2&lt;/sup&gt;)" style="rounded=0;whiteSpace=wrap;html=1;fillColor=#d5e8d4;strokeColor=#82b366;fontSize=10;" vertex="1" parent="1">
          <mxGeometry x="280" y="280" width="200" height="320" as="geometry" />
        </mxCell>
        <mxCell id="nakAse_tgmJTzeun_6DE-17" value="1128 x 731&lt;br&gt;= 824568 (mm&lt;sup&gt;2&lt;/sup&gt;)" style="rounded=0;whiteSpace=wrap;html=1;fillColor=#d5e8d4;strokeColor=#82b366;fontSize=10;" vertex="1" parent="1">
          <mxGeometry x="160" y="540" width="120" height="60" as="geometry" />
        </mxCell>
        <mxCell id="nakAse_tgmJTzeun_6DE-18" value="985 x 511&lt;br&gt;= 503335  (mm&lt;sup&gt;2&lt;/sup&gt;)" style="rounded=0;whiteSpace=wrap;html=1;fillColor=#d5e8d4;strokeColor=#82b366;fontSize=10;" vertex="1" parent="1">
          <mxGeometry x="160" y="480" width="100" height="60" as="geometry" />
        </mxCell>
        <mxCell id="nakAse_tgmJTzeun_6DE-19" value="1128 x 3593&lt;br&gt;= 4052904  (mm&lt;sup&gt;2&lt;/sup&gt;)" style="rounded=0;whiteSpace=wrap;html=1;fillColor=#d5e8d4;strokeColor=#82b366;fontSize=10;" vertex="1" parent="1">
          <mxGeometry x="160" y="280" width="120" height="180" as="geometry" />
        </mxCell>
        <mxCell id="nakAse_tgmJTzeun_6DE-20" value="248 x 515&lt;br&gt;= 127720&lt;br&gt;(mm&lt;sup&gt;2&lt;/sup&gt;)" style="rounded=0;whiteSpace=wrap;html=1;fillColor=#d5e8d4;strokeColor=#82b366;fontSize=10;" vertex="1" parent="1">
          <mxGeometry x="120" y="300" width="40" height="80" as="geometry" />
        </mxCell>
        <mxCell id="nakAse_tgmJTzeun_6DE-21" value="250 x 517&lt;br&gt;= 129250  (mm&lt;sup&gt;2&lt;/sup&gt;)" style="rounded=0;whiteSpace=wrap;html=1;fillColor=#d5e8d4;strokeColor=#82b366;fontSize=10;" vertex="1" parent="1">
          <mxGeometry x="120" y="505" width="40" height="80" as="geometry" />
        </mxCell>
        <mxCell id="nakAse_tgmJTzeun_6DE-22" value="2527 x 255&lt;br&gt;= 644385 (mm&lt;sup&gt;2&lt;/sup&gt;)" style="rounded=0;whiteSpace=wrap;html=1;fillColor=#f8cecc;strokeColor=#b85450;fontSize=10;" vertex="1" parent="1">
          <mxGeometry x="240" y="240" width="160" height="40" as="geometry" />
        </mxCell>
        <mxCell id="nakAse_tgmJTzeun_6DE-23" value="892 x 1591&lt;br&gt;=&lt;br&gt;1419172 (mm&lt;sup&gt;2&lt;/sup&gt;)" style="rounded=0;whiteSpace=wrap;html=1;fillColor=#d5e8d4;strokeColor=#82b366;fontSize=10;" vertex="1" parent="1">
          <mxGeometry x="660" y="680" width="60" height="100" as="geometry" />
        </mxCell>
        <mxCell id="nakAse_tgmJTzeun_6DE-25" value="255" style="shape=dimension;direction=south;whiteSpace=wrap;html=1;align=left;points=[];verticalAlign=middle;labelBackgroundColor=#ffffff;fontSize=10;" vertex="1" parent="1">
          <mxGeometry x="450" y="240" width="30" height="40" as="geometry" />
        </mxCell>
        <mxCell id="nakAse_tgmJTzeun_6DE-26" value="256" style="shape=dimension;direction=north;whiteSpace=wrap;html=1;align=right;points=[];verticalAlign=middle;labelBackgroundColor=#ffffff;fontSize=10;" vertex="1" parent="1">
          <mxGeometry x="400" y="240" width="30" height="40" as="geometry" />
        </mxCell>
        <mxCell id="nakAse_tgmJTzeun_6DE-27" value="254" style="shape=dimension;direction=south;whiteSpace=wrap;html=1;align=left;points=[];verticalAlign=middle;labelBackgroundColor=#ffffff;fontSize=10;" vertex="1" parent="1">
          <mxGeometry x="210" y="240" width="30" height="40" as="geometry" />
        </mxCell>
        <mxCell id="nakAse_tgmJTzeun_6DE-28" value="2527" style="shape=dimension;direction=west;whiteSpace=wrap;html=1;align=center;points=[];verticalAlign=top;spacingTop=-8;labelBackgroundColor=#ffffff;fontSize=10;" vertex="1" parent="1">
          <mxGeometry x="240" y="210" width="160" height="30" as="geometry" />
        </mxCell>
        <mxCell id="nakAse_tgmJTzeun_6DE-29" value="3140" style="shape=dimension;direction=west;whiteSpace=wrap;html=1;align=center;points=[];verticalAlign=top;spacingTop=-8;labelBackgroundColor=#ffffff;fontSize=10;" vertex="1" parent="1">
          <mxGeometry x="480" y="170" width="240" height="30" as="geometry" />
        </mxCell>
        <mxCell id="nakAse_tgmJTzeun_6DE-30" value="1754" style="shape=dimension;direction=north;whiteSpace=wrap;html=1;align=right;points=[];verticalAlign=middle;labelBackgroundColor=#ffffff;fontSize=10;" vertex="1" parent="1">
          <mxGeometry x="480" y="440" width="30" height="160" as="geometry" />
        </mxCell>
        <mxCell id="nakAse_tgmJTzeun_6DE-31" value="1128" style="shape=dimension;direction=west;whiteSpace=wrap;html=1;align=center;points=[];verticalAlign=top;spacingTop=-8;labelBackgroundColor=#ffffff;fontSize=10;" vertex="1" parent="1">
          <mxGeometry x="160" y="170" width="120" height="30" as="geometry" />
        </mxCell>
        <mxCell id="nakAse_tgmJTzeun_6DE-32" value="731" style="shape=dimension;direction=south;whiteSpace=wrap;html=1;align=left;points=[];verticalAlign=middle;labelBackgroundColor=#ffffff;fontSize=10;" vertex="1" parent="1">
          <mxGeometry x="90" y="540" width="30" height="60" as="geometry" />
        </mxCell>
        <mxCell id="nakAse_tgmJTzeun_6DE-33" value="511" style="shape=dimension;direction=south;whiteSpace=wrap;html=1;align=left;points=[];verticalAlign=middle;labelBackgroundColor=#ffffff;fontSize=10;" vertex="1" parent="1">
          <mxGeometry x="90" y="480" width="30" height="60" as="geometry" />
        </mxCell>
        <mxCell id="nakAse_tgmJTzeun_6DE-34" value="4726" style="shape=dimension;whiteSpace=wrap;html=1;align=center;points=[];verticalAlign=bottom;spacingBottom=-5;labelBackgroundColor=#ffffff;fontSize=10;" vertex="1" parent="1">
          <mxGeometry x="280" y="600" width="200" height="30" as="geometry" />
        </mxCell>
        <mxCell id="nakAse_tgmJTzeun_6DE-35" value="4960" style="shape=dimension;direction=north;whiteSpace=wrap;html=1;align=right;points=[];verticalAlign=middle;labelBackgroundColor=#ffffff;fontSize=10;" vertex="1" parent="1">
          <mxGeometry x="440" y="280" width="30" height="320" as="geometry" />
        </mxCell>
        <mxCell id="nakAse_tgmJTzeun_6DE-36" value="515" style="shape=dimension;direction=south;whiteSpace=wrap;html=1;align=left;points=[];verticalAlign=middle;labelBackgroundColor=#ffffff;fontSize=10;" vertex="1" parent="1">
          <mxGeometry x="50" y="300" width="30" height="80" as="geometry" />
        </mxCell>
        <mxCell id="nakAse_tgmJTzeun_6DE-37" value="517" style="shape=dimension;direction=south;whiteSpace=wrap;html=1;align=left;points=[];verticalAlign=middle;labelBackgroundColor=#ffffff;fontSize=10;" vertex="1" parent="1">
          <mxGeometry x="50" y="505" width="30" height="80" as="geometry" />
        </mxCell>
        <mxCell id="nakAse_tgmJTzeun_6DE-38" value="246" style="shape=dimension;direction=west;whiteSpace=wrap;html=1;align=center;points=[];verticalAlign=top;spacingTop=-8;labelBackgroundColor=#ffffff;fontSize=10;" vertex="1" parent="1">
          <mxGeometry x="120" y="270" width="40" height="30" as="geometry" />
        </mxCell>
        <mxCell id="nakAse_tgmJTzeun_6DE-39" value="249" style="shape=dimension;whiteSpace=wrap;html=1;align=center;points=[];verticalAlign=bottom;spacingBottom=-5;labelBackgroundColor=#ffffff;fontSize=10;" vertex="1" parent="1">
          <mxGeometry x="120" y="380" width="40" height="30" as="geometry" />
        </mxCell>
        <mxCell id="nakAse_tgmJTzeun_6DE-40" value="248" style="shape=dimension;direction=west;whiteSpace=wrap;html=1;align=center;points=[];verticalAlign=top;spacingTop=-8;labelBackgroundColor=#ffffff;fontSize=10;" vertex="1" parent="1">
          <mxGeometry x="120" y="475" width="40" height="30" as="geometry" />
        </mxCell>
        <mxCell id="nakAse_tgmJTzeun_6DE-42" value="253" style="shape=dimension;whiteSpace=wrap;html=1;align=center;points=[];verticalAlign=bottom;spacingBottom=-5;labelBackgroundColor=#ffffff;fontSize=10;" vertex="1" parent="1">
          <mxGeometry x="120" y="585" width="40" height="30" as="geometry" />
        </mxCell>
        <mxCell id="nakAse_tgmJTzeun_6DE-43" value="2080" style="shape=dimension;whiteSpace=wrap;html=1;align=center;points=[];verticalAlign=bottom;spacingBottom=-5;labelBackgroundColor=#ffffff;fontSize=10;" vertex="1" parent="1">
          <mxGeometry x="520" y="790" width="140" height="30" as="geometry" />
        </mxCell>
        <mxCell id="nakAse_tgmJTzeun_6DE-44" value="892" style="shape=dimension;whiteSpace=wrap;html=1;align=center;points=[];verticalAlign=bottom;spacingBottom=-5;labelBackgroundColor=#ffffff;fontSize=10;" vertex="1" parent="1">
          <mxGeometry x="660" y="790" width="60" height="30" as="geometry" />
        </mxCell>
        <mxCell id="nakAse_tgmJTzeun_6DE-46" value="1591" style="shape=dimension;direction=north;whiteSpace=wrap;html=1;align=right;points=[];verticalAlign=middle;labelBackgroundColor=#ffffff;fontSize=10;" vertex="1" parent="1">
          <mxGeometry x="720" y="680" width="30" height="100" as="geometry" />
        </mxCell>
        <mxCell id="nakAse_tgmJTzeun_6DE-47" value="1614" style="shape=dimension;direction=south;whiteSpace=wrap;html=1;align=left;points=[];verticalAlign=middle;labelBackgroundColor=#ffffff;fontSize=10;" vertex="1" parent="1">
          <mxGeometry x="490" y="670" width="30" height="120" as="geometry" />
        </mxCell>
        <mxCell id="nakAse_tgmJTzeun_6DE-48" value="&lt;div&gt;127720&lt;/div&gt;&lt;div&gt;+ 4052904&lt;br&gt;+ 129250&lt;br&gt;+ 503335&lt;br&gt;+ 824568&lt;br&gt;+ 23440960&lt;br&gt;+ 646400&lt;br&gt;+ 10126500&lt;br&gt;+ 2257120&lt;br&gt;+ 1419172&lt;/div&gt;&lt;div&gt;= 43527929&lt;br&gt;&lt;/div&gt;&lt;br&gt;= 43,52 (m&lt;sup&gt;2&lt;/sup&gt;)" style="text;html=1;strokeColor=none;fillColor=none;align=right;verticalAlign=middle;whiteSpace=wrap;rounded=0;fontSize=10;fontColor=none;" vertex="1" parent="1">
          <mxGeometry x="130" y="700" width="100" height="120" as="geometry" />
        </mxCell>
      </root>
    </mxGraphModel>
  </diagram>
</mxfile>
